# xmcd
#
# Track frame offsets:
#	150
#	16010
#	34220
#	50452
#	64015
#	78280
#	96742
#	113015
#	130142
#	147347
#	162270
#	178487
#	200787
#	219125
#
# Disc length: 3090 seconds
#
# Revision: 6
# Processed by: cddbd v1.5.2PL0 Copyright (c) Steve Scherf et al.
# Submitted via: VUPlayer 2.49
#
DISCID=c70c100e
DTITLE=Various Artist - Hollandse Ouwe en Nieuwe CD-1
DYEAR=1995
DGENRE=Nederlandstalig
TTITLE0=Corry - Ik krijg  een heel apart gevoel van binnen
TTITLE1=Circus Custers - Verliefd
TTITLE2=Renee de Haan - Vuile huichelaar
TTITLE3=Koos Alberts - Ik verscheurde je foto
TTITLE4=De Havenzangers - 's Nachts na tweeën
TTITLE5=Nico Haak - Foxie foxtrot
TTITLE6=Hans de Booy - Annabel
TTITLE7=Dennie Christian - Susan
TTITLE8=Bonnie St. Claire - Dokter Bernard
TTITLE9=Freddy Breck,  Dennie Christian en Mieke - Vakantie
TTITLE10=Mieke - Onze liefde gaat nooit voorbij
TTITLE11=Jantje Koopmans - Rode rozen, witte seringen
TTITLE12=Vader Abraham en Wilma - Zou het erg zijn lieve Opa
TTITLE13=Marc Winter - De Heilsoldaat
EXTD=
EXTT0=
EXTT1=
EXTT2=
EXTT3=
EXTT4=
EXTT5=
EXTT6=
EXTT7=
EXTT8=
EXTT9=
EXTT10=
EXTT11=
EXTT12=
EXTT13=
PLAYORDER=
